# xmcd
#
# Track frame offsets:
#	150
#	26759
#	54246
#	72412
#	95734
#	115079
#	137590
#	160507
#	183958
#	204720
#	221803
#	233673
#	254689
#	273630
#	289545
#	303996
#	322766
#
# Disc length: 4677 seconds
#
# Revision: 1
# Processed by: cddbd v1.5.2PL0 Copyright (c) Steve Scherf et al.
# Submitted via: audiograbber 1.83.01
#
DISCID=f6124311
DTITLE=Various Artist - Kings of Blues
DYEAR=2007
DGENRE=Blues
TTITLE0=Jonny Lang - A quitter never wins
TTITLE1=Stevie Ray Vaughan - Ain't gone 'n' give up on love
TTITLE2=Bernard Allison - I can't get you out of my mind
TTITLE3=Popa Chubby - The wind cries Mary
TTITLE4=Steve Johnson - Sex machine
TTITLE5=Magic Slim and The Teardrops - I'm a bluesman
TTITLE6=Grand Union - TC blues
TTITLE7=Cyril Lance - Same thing
TTITLE8=Paul Personne - Exit of Eden
TTITLE9=Beverly Jo Scott - Tennessee tears
TTITLE10=Gashouse Dave - It's drag always being right
TTITLE11=Taj Mahal - Honky tonk woman
TTITLE12=Pura Fe' - Wait 'til you come back again
TTITLE13=Eric Bibb - Destiny blues
TTITLE14=Candye Kane - White trash girl
TTITLE15=Tito and Tarantula - After dark
TTITLE16=Louis Bertignac - Vas-y guitare (Live Power Trio 2006)
EXTD=
EXTT0=
EXTT1=
EXTT2=
EXTT3=
EXTT4=
EXTT5=
EXTT6=
EXTT7=
EXTT8=
EXTT9=
EXTT10=
EXTT11=
EXTT12=
EXTT13=
EXTT14=
EXTT15=
EXTT16=
PLAYORDER=
